Normalized EMG Linear Envelopes
nRows=27
nColumns=17

endheader
time	        VM	        VL	        RF	       GRA	        TA	   ADDLONG	   SEMIMEM	      BFLH	        GM	        GL	       TFL	   GLUTMAX	   GLUTMED	      PIRI	    OBTINT	        QF	
1.81	  0.394723	  0.425155	  0.213090	  0.269871	  0.137574	  0.232975	  0.371869	  0.395668	  0.236745	  0.145282	  0.134680	  0.116610	  0.129586	  0.251736	  0.399430	  0.470745	
1.8105	  0.394831	  0.426370	  0.216250	  0.268184	  0.136440	  0.233891	  0.365875	  0.390526	  0.234725	  0.144375	  0.135266	  0.116870	  0.129813	  0.251754	  0.397096	  0.467650	
1.811	  0.394932	  0.427540	  0.219408	  0.266518	  0.135315	  0.234809	  0.359905	  0.385382	  0.232696	  0.143487	  0.135824	  0.117144	  0.130037	  0.251760	  0.394791	  0.464587	
1.8115	  0.395024	  0.428664	  0.222564	  0.264873	  0.134200	  0.235729	  0.353961	  0.380236	  0.230658	  0.142618	  0.136353	  0.117431	  0.130258	  0.251756	  0.392518	  0.461555	
1.812	  0.395106	  0.429741	  0.225714	  0.263251	  0.133095	  0.236652	  0.348046	  0.375091	  0.228613	  0.141768	  0.136853	  0.117732	  0.130476	  0.251741	  0.390276	  0.458557	
1.8125	  0.395177	  0.430772	  0.228859	  0.261653	  0.132002	  0.237577	  0.342163	  0.369951	  0.226561	  0.140939	  0.137325	  0.118045	  0.130691	  0.251716	  0.388068	  0.455592	
1.813	  0.395236	  0.431757	  0.231995	  0.260081	  0.130920	  0.238506	  0.336314	  0.364817	  0.224505	  0.140129	  0.137767	  0.118370	  0.130904	  0.251681	  0.385895	  0.452662	
1.8135	  0.395281	  0.432696	  0.235123	  0.258536	  0.129852	  0.239437	  0.330503	  0.359692	  0.222444	  0.139340	  0.138182	  0.118706	  0.131114	  0.251636	  0.383757	  0.449766	
1.814	  0.395312	  0.433587	  0.238239	  0.257019	  0.128796	  0.240371	  0.324731	  0.354578	  0.220380	  0.138571	  0.138568	  0.119053	  0.131321	  0.251584	  0.381657	  0.446906	
1.8145	  0.395329	  0.434432	  0.241343	  0.255531	  0.127755	  0.241309	  0.319001	  0.349478	  0.218313	  0.137823	  0.138927	  0.119409	  0.131525	  0.251523	  0.379595	  0.444081	
1.815	  0.395331	  0.435229	  0.244432	  0.254074	  0.126728	  0.242249	  0.313316	  0.344393	  0.216246	  0.137096	  0.139258	  0.119775	  0.131726	  0.251456	  0.377572	  0.441293	
1.8155	  0.395318	  0.435979	  0.247504	  0.252648	  0.125715	  0.243193	  0.307677	  0.339325	  0.214179	  0.136390	  0.139562	  0.120149	  0.131924	  0.251382	  0.375588	  0.438541	
1.816	  0.395290	  0.436681	  0.250558	  0.251255	  0.124719	  0.244139	  0.302086	  0.334278	  0.212112	  0.135706	  0.139840	  0.120530	  0.132119	  0.251304	  0.373646	  0.435824	
1.8165	  0.395247	  0.437334	  0.253592	  0.249896	  0.123739	  0.245089	  0.296547	  0.329251	  0.210049	  0.135043	  0.140092	  0.120919	  0.132310	  0.251222	  0.371745	  0.433145	
1.817	  0.395188	  0.437938	  0.256603	  0.248571	  0.122775	  0.246042	  0.291060	  0.324249	  0.207988	  0.134401	  0.140319	  0.121313	  0.132498	  0.251137	  0.369887	  0.430501	
1.8175	  0.395115	  0.438492	  0.259590	  0.247282	  0.121828	  0.246999	  0.285627	  0.319271	  0.205933	  0.133782	  0.140520	  0.121712	  0.132681	  0.251050	  0.368071	  0.427893	
1.818	  0.395026	  0.438996	  0.262549	  0.246029	  0.120899	  0.247960	  0.280251	  0.314321	  0.203883	  0.133185	  0.140698	  0.122116	  0.132860	  0.250961	  0.366299	  0.425320	
1.8185	  0.394922	  0.439449	  0.265480	  0.244814	  0.119987	  0.248925	  0.274933	  0.309400	  0.201841	  0.132609	  0.140852	  0.122522	  0.133035	  0.250870	  0.364570	  0.422783	
1.819	  0.394803	  0.439850	  0.268379	  0.243637	  0.119094	  0.249894	  0.269675	  0.304510	  0.199807	  0.132056	  0.140983	  0.122931	  0.133204	  0.250780	  0.362886	  0.420280	
1.8195	  0.394668	  0.440199	  0.271245	  0.242501	  0.118220	  0.250869	  0.264477	  0.299652	  0.197783	  0.131525	  0.141092	  0.123341	  0.133369	  0.250689	  0.361246	  0.417811	
1.82	  0.394518	  0.440494	  0.274074	  0.241405	  0.117365	  0.251849	  0.259342	  0.294828	  0.195769	  0.131016	  0.141180	  0.123751	  0.133528	  0.250599	  0.359651	  0.415375	
1.8205	  0.394352	  0.440736	  0.276864	  0.240352	  0.116529	  0.252834	  0.254272	  0.290040	  0.193767	  0.130529	  0.141248	  0.124160	  0.133680	  0.250509	  0.358101	  0.412972	
1.821	  0.394170	  0.440922	  0.279612	  0.239342	  0.115712	  0.253825	  0.249266	  0.285288	  0.191778	  0.130065	  0.141297	  0.124567	  0.133826	  0.250421	  0.356597	  0.410601	
1.8215	  0.393972	  0.441053	  0.282317	  0.238376	  0.114915	  0.254823	  0.244328	  0.280574	  0.189803	  0.129624	  0.141329	  0.124972	  0.133966	  0.250334	  0.355138	  0.408261	
1.822	  0.393758	  0.441128	  0.284975	  0.237456	  0.114139	  0.255826	  0.239457	  0.275900	  0.187844	  0.129206	  0.141343	  0.125373	  0.134097	  0.250249	  0.353725	  0.405951	
1.8225	  0.393527	  0.441145	  0.287585	  0.236581	  0.113382	  0.256837	  0.234655	  0.271267	  0.185900	  0.128811	  0.141342	  0.125768	  0.134221	  0.250166	  0.352358	  0.403671	
1.823	  0.393280	  0.441106	  0.290143	  0.235754	  0.112646	  0.257854	  0.229923	  0.266676	  0.183975	  0.128439	  0.141327	  0.126158	  0.134337	  0.250085	  0.351037	  0.401420	
